<mxfile host="app.diagrams.net" agent="Mozilla/5.0 (Macintosh; Intel Mac OS X 10.15; rv:132.0) Gecko/20100101 Firefox/132.0" version="24.8.8">
  <diagram name="Page-1" id="VWGrCCqevwKFhtXBI-uN">
    <mxGraphModel dx="622" dy="682" grid="1" gridSize="10" guides="1" tooltips="1" connect="1" arrows="1" fold="1" page="1" pageScale="1" pageWidth="850" pageHeight="1100" math="0" shadow="0">
      <root>
        <mxCell id="0" />
        <mxCell id="1" parent="0" />
        <mxCell id="GRcCRgv8Yu-xAPI8o5qU-1" value="can0" style="rounded=1;whiteSpace=wrap;html=1;" vertex="1" parent="1">
          <mxGeometry x="360" y="540" width="120" height="60" as="geometry" />
        </mxCell>
        <mxCell id="GRcCRgv8Yu-xAPI8o5qU-2" value="can1" style="rounded=1;whiteSpace=wrap;html=1;" vertex="1" parent="1">
          <mxGeometry x="360" y="620" width="120" height="60" as="geometry" />
        </mxCell>
        <mxCell id="GRcCRgv8Yu-xAPI8o5qU-3" value="can2" style="rounded=1;whiteSpace=wrap;html=1;" vertex="1" parent="1">
          <mxGeometry x="360" y="700" width="120" height="60" as="geometry" />
        </mxCell>
        <mxCell id="GRcCRgv8Yu-xAPI8o5qU-4" value="can3" style="rounded=1;whiteSpace=wrap;html=1;" vertex="1" parent="1">
          <mxGeometry x="360" y="780" width="120" height="60" as="geometry" />
        </mxCell>
        <mxCell id="GRcCRgv8Yu-xAPI8o5qU-8" value="" style="endArrow=classic;html=1;rounded=0;align=center;labelPosition=center;verticalLabelPosition=middle;verticalAlign=middle;" edge="1" parent="1">
          <mxGeometry width="50" height="50" relative="1" as="geometry">
            <mxPoint x="260" y="650" as="sourcePoint" />
            <mxPoint x="360" y="649.5" as="targetPoint" />
          </mxGeometry>
        </mxCell>
        <mxCell id="GRcCRgv8Yu-xAPI8o5qU-9" value="HS2 CAN bus" style="edgeLabel;html=1;align=center;verticalAlign=middle;resizable=0;points=[];" vertex="1" connectable="0" parent="GRcCRgv8Yu-xAPI8o5qU-8">
          <mxGeometry relative="1" as="geometry">
            <mxPoint as="offset" />
          </mxGeometry>
        </mxCell>
        <mxCell id="GRcCRgv8Yu-xAPI8o5qU-10" value="" style="endArrow=classic;html=1;rounded=0;align=center;labelPosition=center;verticalLabelPosition=middle;verticalAlign=middle;" edge="1" parent="1">
          <mxGeometry width="50" height="50" relative="1" as="geometry">
            <mxPoint x="260" y="570" as="sourcePoint" />
            <mxPoint x="360" y="569.5" as="targetPoint" />
          </mxGeometry>
        </mxCell>
        <mxCell id="GRcCRgv8Yu-xAPI8o5qU-11" value="HS1 CAN bus" style="edgeLabel;html=1;align=center;verticalAlign=middle;resizable=0;points=[];" vertex="1" connectable="0" parent="GRcCRgv8Yu-xAPI8o5qU-10">
          <mxGeometry relative="1" as="geometry">
            <mxPoint as="offset" />
          </mxGeometry>
        </mxCell>
        <mxCell id="GRcCRgv8Yu-xAPI8o5qU-12" value="" style="endArrow=classic;html=1;rounded=0;align=center;labelPosition=center;verticalLabelPosition=middle;verticalAlign=middle;" edge="1" parent="1">
          <mxGeometry width="50" height="50" relative="1" as="geometry">
            <mxPoint x="260" y="730" as="sourcePoint" />
            <mxPoint x="360" y="729.5" as="targetPoint" />
          </mxGeometry>
        </mxCell>
        <mxCell id="GRcCRgv8Yu-xAPI8o5qU-13" value="HS3 CAN bus" style="edgeLabel;html=1;align=center;verticalAlign=middle;resizable=0;points=[];" vertex="1" connectable="0" parent="GRcCRgv8Yu-xAPI8o5qU-12">
          <mxGeometry relative="1" as="geometry">
            <mxPoint as="offset" />
          </mxGeometry>
        </mxCell>
        <mxCell id="GRcCRgv8Yu-xAPI8o5qU-14" value="" style="endArrow=classic;html=1;rounded=0;align=center;labelPosition=center;verticalLabelPosition=middle;verticalAlign=middle;" edge="1" parent="1">
          <mxGeometry width="50" height="50" relative="1" as="geometry">
            <mxPoint x="260" y="810" as="sourcePoint" />
            <mxPoint x="360" y="809.5" as="targetPoint" />
          </mxGeometry>
        </mxCell>
        <mxCell id="GRcCRgv8Yu-xAPI8o5qU-15" value="Not connected" style="edgeLabel;html=1;align=center;verticalAlign=middle;resizable=0;points=[];" vertex="1" connectable="0" parent="GRcCRgv8Yu-xAPI8o5qU-14">
          <mxGeometry relative="1" as="geometry">
            <mxPoint as="offset" />
          </mxGeometry>
        </mxCell>
        <mxCell id="GRcCRgv8Yu-xAPI8o5qU-16" value="vehicle gateway" style="rounded=1;whiteSpace=wrap;html=1;" vertex="1" parent="1">
          <mxGeometry x="140" y="540" width="120" height="220" as="geometry" />
        </mxCell>
        <mxCell id="GRcCRgv8Yu-xAPI8o5qU-17" value="" style="endArrow=classic;html=1;rounded=0;align=center;labelPosition=center;verticalLabelPosition=middle;verticalAlign=middle;" edge="1" parent="1">
          <mxGeometry width="50" height="50" relative="1" as="geometry">
            <mxPoint x="480" y="570" as="sourcePoint" />
            <mxPoint x="580" y="569.5" as="targetPoint" />
          </mxGeometry>
        </mxCell>
        <mxCell id="GRcCRgv8Yu-xAPI8o5qU-18" value="can0/rx" style="edgeLabel;html=1;align=center;verticalAlign=middle;resizable=0;points=[];" vertex="1" connectable="0" parent="GRcCRgv8Yu-xAPI8o5qU-17">
          <mxGeometry relative="1" as="geometry">
            <mxPoint as="offset" />
          </mxGeometry>
        </mxCell>
        <mxCell id="GRcCRgv8Yu-xAPI8o5qU-19" value="" style="endArrow=classic;html=1;rounded=0;align=center;labelPosition=center;verticalLabelPosition=middle;verticalAlign=middle;" edge="1" parent="1">
          <mxGeometry width="50" height="50" relative="1" as="geometry">
            <mxPoint x="480" y="650.5" as="sourcePoint" />
            <mxPoint x="580" y="650" as="targetPoint" />
          </mxGeometry>
        </mxCell>
        <mxCell id="GRcCRgv8Yu-xAPI8o5qU-20" value="can1/rx" style="edgeLabel;html=1;align=center;verticalAlign=middle;resizable=0;points=[];" vertex="1" connectable="0" parent="GRcCRgv8Yu-xAPI8o5qU-19">
          <mxGeometry relative="1" as="geometry">
            <mxPoint as="offset" />
          </mxGeometry>
        </mxCell>
        <mxCell id="GRcCRgv8Yu-xAPI8o5qU-21" value="" style="endArrow=classic;html=1;rounded=0;align=center;labelPosition=center;verticalLabelPosition=middle;verticalAlign=middle;" edge="1" parent="1">
          <mxGeometry width="50" height="50" relative="1" as="geometry">
            <mxPoint x="480" y="730" as="sourcePoint" />
            <mxPoint x="580" y="729.5" as="targetPoint" />
          </mxGeometry>
        </mxCell>
        <mxCell id="GRcCRgv8Yu-xAPI8o5qU-22" value="can2/rx" style="edgeLabel;html=1;align=center;verticalAlign=middle;resizable=0;points=[];" vertex="1" connectable="0" parent="GRcCRgv8Yu-xAPI8o5qU-21">
          <mxGeometry relative="1" as="geometry">
            <mxPoint as="offset" />
          </mxGeometry>
        </mxCell>
        <mxCell id="GRcCRgv8Yu-xAPI8o5qU-23" value="" style="endArrow=classic;html=1;rounded=0;align=center;labelPosition=center;verticalLabelPosition=middle;verticalAlign=middle;" edge="1" parent="1">
          <mxGeometry width="50" height="50" relative="1" as="geometry">
            <mxPoint x="480" y="810" as="sourcePoint" />
            <mxPoint x="580" y="809.5" as="targetPoint" />
          </mxGeometry>
        </mxCell>
        <mxCell id="GRcCRgv8Yu-xAPI8o5qU-24" value="can3/rx" style="edgeLabel;html=1;align=center;verticalAlign=middle;resizable=0;points=[];" vertex="1" connectable="0" parent="GRcCRgv8Yu-xAPI8o5qU-23">
          <mxGeometry relative="1" as="geometry">
            <mxPoint as="offset" />
          </mxGeometry>
        </mxCell>
      </root>
    </mxGraphModel>
  </diagram>
</mxfile>
